<mxfile host="65bd71144e">
    <diagram name="Gofed Architecture" id="gofed-arch">
        <mxGraphModel dx="2106" dy="1541" grid="1" gridSize="10" guides="1" tooltips="1" connect="1" arrows="1" fold="1" page="1" pageScale="1" pageWidth="1169" pageHeight="827" math="0" shadow="0">
            <root>
                <mxCell id="0"/>
                <mxCell id="1" parent="0"/>
                <mxCell id="client" value="Client/Frontend&lt;br&gt;&lt;span style=&quot;font-weight: normal;&quot;&gt;&lt;font style=&quot;color: rgb(105, 105, 105);&quot;&gt;GraphQL &lt;/font&gt;&lt;font style=&quot;color: rgb(105, 105, 105);&quot;&gt;Client&lt;/font&gt;&lt;/span&gt;" style="rounded=1;whiteSpace=wrap;html=1;fillColor=#e1d5e7;strokeColor=#9673a6;fontSize=12;fontStyle=1;" parent="1" vertex="1">
                    <mxGeometry x="-90" y="40" width="120" height="60" as="geometry"/>
                </mxCell>
                <mxCell id="gateway" value="Apollo Gateway&lt;br&gt;&lt;span style=&quot;font-weight: normal;&quot;&gt;&lt;font style=&quot;color: rgb(105, 105, 105);&quot;&gt;Port: 4000&lt;br&gt;Federation v2.0&lt;br&gt;@key directives&lt;br&gt;__resolveReference&lt;/font&gt;&lt;/span&gt;" style="rounded=1;whiteSpace=wrap;html=1;fillColor=#d5e8d4;strokeColor=#82b366;fontSize=12;fontStyle=1;" parent="1" vertex="1">
                    <mxGeometry x="240" y="30" width="160" height="80" as="geometry"/>
                </mxCell>
                <mxCell id="6" style="edgeStyle=orthogonalEdgeStyle;html=1;entryX=0.5;entryY=0;entryDx=0;entryDy=0;dashed=1;rounded=0;curved=0;exitX=1;exitY=0.75;exitDx=0;exitDy=0;" edge="1" parent="1" source="users" target="2">
                    <mxGeometry relative="1" as="geometry"/>
                </mxCell>
                <mxCell id="7" value="/metrics" style="edgeLabel;html=1;align=center;verticalAlign=middle;resizable=0;points=[];" vertex="1" connectable="0" parent="6">
                    <mxGeometry x="0.4615" relative="1" as="geometry">
                        <mxPoint as="offset"/>
                    </mxGeometry>
                </mxCell>
                <mxCell id="users" value="Users Service&lt;br&gt;&lt;span style=&quot;font-weight: normal;&quot;&gt;&lt;font style=&quot;color: rgb(105, 105, 105);&quot;&gt;Port: 8081&lt;br&gt;GraphQL + gqlgen&lt;br&gt;Health Check&lt;br&gt;Concurrent Resolvers&lt;br&gt;WaitGroup + Channels&lt;br&gt;Benchmarks + Race Tests&lt;/font&gt;&lt;/span&gt;" style="rounded=1;whiteSpace=wrap;html=1;fillColor=#dae8fc;strokeColor=#6c8ebf;fontSize=12;fontStyle=1;" parent="1" vertex="1">
                    <mxGeometry x="720" y="20" width="140" height="120" as="geometry"/>
                </mxCell>
                <mxCell id="5" style="edgeStyle=orthogonalEdgeStyle;html=1;entryX=0.5;entryY=1;entryDx=0;entryDy=0;dashed=1;rounded=0;curved=0;exitX=1.004;exitY=0.36;exitDx=0;exitDy=0;exitPerimeter=0;" edge="1" parent="1" source="products" target="2">
                    <mxGeometry relative="1" as="geometry"/>
                </mxCell>
                <mxCell id="8" value="/metrics" style="edgeLabel;html=1;align=center;verticalAlign=middle;resizable=0;points=[];" vertex="1" connectable="0" parent="5">
                    <mxGeometry x="0.8246" y="-1" relative="1" as="geometry">
                        <mxPoint x="1" as="offset"/>
                    </mxGeometry>
                </mxCell>
                <mxCell id="products" value="Products Service&lt;br&gt;&lt;span style=&quot;font-weight: normal;&quot;&gt;&lt;font style=&quot;color: rgb(105, 105, 105);&quot;&gt;Port: 8082&lt;br&gt;GraphQL + gqlgen&lt;br&gt;Health Check&lt;br&gt;Owner Relations&lt;br&gt;Custom Semaphore&lt;br&gt;Backpressure Control&lt;/font&gt;&lt;/span&gt;" style="rounded=1;whiteSpace=wrap;html=1;fillColor=#fff2cc;strokeColor=#d6b656;fontSize=12;fontStyle=1;" parent="1" vertex="1">
                    <mxGeometry x="435" y="270" width="140" height="100" as="geometry"/>
                </mxCell>
                <mxCell id="mock-users" value="Users Mock Data&lt;br&gt;Alice, Bob, Charlie&lt;br&gt;Diana, Eve, Frank&lt;br&gt;Grace, Henry&lt;br&gt;In-memory storage" style="rounded=1;whiteSpace=wrap;html=1;fillColor=#f8cecc;strokeColor=#b85450;fontSize=10;" parent="1" vertex="1">
                    <mxGeometry x="980" y="30" width="120" height="80" as="geometry"/>
                </mxCell>
                <mxCell id="mock-products" value="Products Mock Data&lt;br&gt;iPhone, MacBook, Nike&lt;br&gt;Coffee Maker, Gaming Mouse&lt;br&gt;Yoga Mat, Bluetooth Speaker&lt;br&gt;Smart Watch&lt;br&gt;With Owner Relations" style="rounded=1;whiteSpace=wrap;html=1;fillColor=#f8cecc;strokeColor=#b85450;fontSize=10;" parent="1" vertex="1">
                    <mxGeometry x="980" y="280" width="190" height="80" as="geometry"/>
                </mxCell>
                <mxCell id="federation" value="Federation Features&lt;br&gt;• &lt;span style=&quot;font-weight: normal;&quot;&gt;&lt;font style=&quot;color: rgb(105, 105, 105);&quot;&gt;@key(fields: &quot;id&quot;)&lt;br&gt;• __resolveReference&lt;br&gt;• Cross-service queries&lt;br&gt;• Owner relationships&lt;/font&gt;&lt;/span&gt;" style="rounded=1;whiteSpace=wrap;html=1;fillColor=#ffe6cc;strokeColor=#d79b00;fontSize=11;fontStyle=1;" parent="1" vertex="1">
                    <mxGeometry x="240" y="130" width="160" height="80" as="geometry"/>
                </mxCell>
                <mxCell id="concurrency" value="Concurrency Features&lt;br&gt;• &lt;span style=&quot;font-weight: normal;&quot;&gt;&lt;font style=&quot;color: rgb(105, 105, 105);&quot;&gt;WaitGroup&lt;br&gt;• Channels&lt;br&gt;• Context&lt;br&gt;• Timeout (5s)&lt;br&gt;• Latency (100ms)&lt;/font&gt;&lt;/span&gt;" style="rounded=1;whiteSpace=wrap;html=1;fillColor=#e6f3ff;strokeColor=#0066cc;fontSize=11;fontStyle=1;" parent="1" vertex="1">
                    <mxGeometry x="710" y="-190" width="160" height="80" as="geometry"/>
                </mxCell>
                <mxCell id="testing" value="Testing &amp;amp; Tools&lt;br&gt;•&lt;span style=&quot;font-weight: normal;&quot;&gt;&lt;font style=&quot;color: rgb(105, 105, 105);&quot;&gt; GraphQL Playground&lt;br&gt;• Apollo Studio&lt;br&gt;• curl scripts&lt;br&gt;• Health checks&lt;br&gt;• Performance tests&lt;/font&gt;&lt;/span&gt;" style="rounded=1;whiteSpace=wrap;html=1;fillColor=#e6f3ff;strokeColor=#0066cc;fontSize=11;fontStyle=1;" parent="1" vertex="1">
                    <mxGeometry x="435" y="400" width="160" height="80" as="geometry"/>
                </mxCell>
                <mxCell id="docker" value="&amp;nbsp;Docker &amp;amp; Compose&lt;br&gt;&lt;span style=&quot;font-weight: normal;&quot;&gt;&lt;font style=&quot;color: rgb(105, 105, 105);&quot;&gt;• Containerized services&lt;br&gt;• Network isolation&lt;br&gt;• Environment variables&lt;br&gt;• Easy deployment&lt;/font&gt;&lt;/span&gt;" style="rounded=1;whiteSpace=wrap;html=1;fillColor=#f0f0f0;strokeColor=#666666;fontSize=11;fontStyle=1;" parent="1" vertex="1">
                    <mxGeometry x="240" y="400" width="160" height="80" as="geometry"/>
                </mxCell>
                <mxCell id="conn1" value="GraphQL Queries" style="edgeStyle=orthogonalEdgeStyle;rounded=0;orthogonalLoop=1;jettySize=auto;html=1;strokeColor=#666666;strokeWidth=2;" parent="1" source="client" target="gateway" edge="1">
                    <mxGeometry relative="1" as="geometry"/>
                </mxCell>
                <mxCell id="conn2" value="Federation Proxy" style="edgeStyle=orthogonalEdgeStyle;rounded=0;orthogonalLoop=1;jettySize=auto;html=1;strokeColor=#82b366;strokeWidth=2;" parent="1" source="gateway" target="users" edge="1">
                    <mxGeometry relative="1" as="geometry"/>
                </mxCell>
                <mxCell id="conn3" value="Federation Proxy" style="edgeStyle=orthogonalEdgeStyle;rounded=0;orthogonalLoop=1;jettySize=auto;html=1;strokeColor=#82b366;strokeWidth=2;" parent="1" source="gateway" target="products" edge="1">
                    <mxGeometry relative="1" as="geometry"/>
                </mxCell>
                <mxCell id="conn4" value="Data Access" style="edgeStyle=orthogonalEdgeStyle;rounded=0;orthogonalLoop=1;jettySize=auto;html=1;strokeColor=#b85450;strokeWidth=1;" parent="1" source="users" target="mock-users" edge="1">
                    <mxGeometry relative="1" as="geometry"/>
                </mxCell>
                <mxCell id="conn5" value="Data Access" style="edgeStyle=orthogonalEdgeStyle;rounded=0;orthogonalLoop=1;jettySize=auto;html=1;strokeColor=#b85450;strokeWidth=1;" parent="1" source="products" target="mock-products" edge="1">
                    <mxGeometry relative="1" as="geometry"/>
                </mxCell>
                <mxCell id="conn6" value="Owner Relations" style="edgeStyle=orthogonalEdgeStyle;rounded=0;orthogonalLoop=1;jettySize=auto;html=1;strokeColor=#d6b656;strokeWidth=2;dashed=1;entryX=0.5;entryY=1;entryDx=0;entryDy=0;" parent="1" target="users" edge="1">
                    <mxGeometry relative="1" as="geometry">
                        <mxPoint x="580" y="290" as="sourcePoint"/>
                    </mxGeometry>
                </mxCell>
                <mxCell id="conn7" value="Concurrent Resolution" style="edgeStyle=orthogonalEdgeStyle;rounded=0;orthogonalLoop=1;jettySize=auto;html=1;strokeColor=#0066cc;strokeWidth=2;dashed=1;exitX=0.5;exitY=0;exitDx=0;exitDy=0;" parent="1" source="users" target="concurrency" edge="1">
                    <mxGeometry relative="1" as="geometry"/>
                </mxCell>
                <mxCell id="status1" value="&amp;nbsp;Running" style="ellipse;whiteSpace=wrap;html=1;fillColor=#d5e8d4;strokeColor=#82b366;fontSize=10;fontStyle=1;" parent="1" vertex="1">
                    <mxGeometry x="420" y="42" width="50" height="20" as="geometry"/>
                </mxCell>
                <mxCell id="status2" value="&amp;nbsp;Running" style="ellipse;whiteSpace=wrap;html=1;fillColor=#d5e8d4;strokeColor=#82b366;fontSize=10;fontStyle=1;" parent="1" vertex="1">
                    <mxGeometry x="450" y="190" width="50" height="20" as="geometry"/>
                </mxCell>
                <mxCell id="status3" value="&amp;nbsp;Running" style="ellipse;whiteSpace=wrap;html=1;fillColor=#d5e8d4;strokeColor=#82b366;fontSize=10;fontStyle=1;" parent="1" vertex="1">
                    <mxGeometry x="420" y="42" width="50" height="20" as="geometry"/>
                </mxCell>
                <mxCell id="performance" value="Performance&lt;br&gt;• &lt;span style=&quot;font-weight: normal;&quot;&gt;&lt;font style=&quot;color: rgb(105, 105, 105);&quot;&gt;Concurrent: ~101ms&lt;br&gt;• Sequential: ~505ms&lt;br&gt;• 5x faster&lt;br&gt;• Race-free&lt;/font&gt;&lt;/span&gt;" style="rounded=1;whiteSpace=wrap;html=1;fillColor=#d5e8d4;strokeColor=#82b366;fontSize=11;fontStyle=1;" parent="1" vertex="1">
                    <mxGeometry x="640" y="400" width="140" height="80" as="geometry"/>
                </mxCell>
                <mxCell id="benchmark" value="Benchmark &amp;amp; Tests&lt;br&gt;• &lt;span style=&quot;font-weight: normal;&quot;&gt;&lt;font style=&quot;color: rgb(105, 105, 105);&quot;&gt;go test -race&lt;br&gt;• go test -bench&lt;br&gt;• Unit tests&lt;br&gt;• Stress tests&lt;br&gt;• Performance analysis&lt;/font&gt;&lt;/span&gt;" style="rounded=1;whiteSpace=wrap;html=1;fillColor=#f8cecc;strokeColor=#b85450;fontSize=11;fontStyle=1;" parent="1" vertex="1">
                    <mxGeometry x="890" y="-190" width="160" height="80" as="geometry"/>
                </mxCell>
                <mxCell id="conn8" value="Benchmark Tests" style="edgeStyle=orthogonalEdgeStyle;rounded=0;orthogonalLoop=1;jettySize=auto;html=1;strokeColor=#b85450;strokeWidth=2;dashed=1;exitX=1;exitY=0.25;exitDx=0;exitDy=0;" parent="1" source="users" target="benchmark" edge="1">
                    <mxGeometry x="0.4815" relative="1" as="geometry">
                        <mxPoint as="offset"/>
                    </mxGeometry>
                </mxCell>
                <mxCell id="semaphore" value="Semaphore &amp;amp; Backpressure&lt;br&gt;• &lt;span style=&quot;font-weight: normal;&quot;&gt;&lt;font style=&quot;color: rgb(105, 105, 105);&quot;&gt;Max 3 concurrent&lt;br&gt;• chan struct{}&lt;br&gt;• Thread-safe&lt;br&gt;• Context-aware&lt;br&gt;• Real-time stats&lt;/font&gt;&lt;/span&gt;" style="rounded=1;whiteSpace=wrap;html=1;fillColor=#e1d5e7;strokeColor=#9673a6;fontSize=11;fontStyle=1;" parent="1" vertex="1">
                    <mxGeometry x="20" y="280" width="160" height="80" as="geometry"/>
                </mxCell>
                <mxCell id="conn9" value="Semaphore Control" style="edgeStyle=orthogonalEdgeStyle;rounded=0;orthogonalLoop=1;jettySize=auto;html=1;strokeColor=#9673a6;strokeWidth=2;dashed=1;" parent="1" source="products" target="semaphore" edge="1">
                    <mxGeometry relative="1" as="geometry"/>
                </mxCell>
                <mxCell id="4" value="" style="edgeStyle=none;html=1;dashed=1;" edge="1" parent="1" source="2" target="3">
                    <mxGeometry relative="1" as="geometry"/>
                </mxCell>
                <mxCell id="2" value="&lt;span style=&quot;color: rgb(0, 0, 0);&quot;&gt;Shared Metrics&lt;/span&gt;&lt;br&gt;&lt;span style=&quot;color: rgb(0, 0, 0);&quot;&gt;Package&lt;/span&gt;" style="rounded=1;whiteSpace=wrap;html=1;fillColor=#f8cecc;strokeColor=#b85450;" vertex="1" parent="1">
                    <mxGeometry x="860" y="180" width="120" height="60" as="geometry"/>
                </mxCell>
                <mxCell id="3" value="Prometheus Metrics" style="rounded=1;whiteSpace=wrap;html=1;fillColor=#e1d5e7;strokeColor=#9673a6;" vertex="1" parent="1">
                    <mxGeometry x="1060" y="180" width="120" height="60" as="geometry"/>
                </mxCell>
                <mxCell id="10" value="Text" style="text;html=1;align=center;verticalAlign=middle;whiteSpace=wrap;rounded=0;" vertex="1" parent="1">
                    <mxGeometry x="360" y="200" width="60" height="30" as="geometry"/>
                </mxCell>
                <mxCell id="11" value="&lt;span style=&quot;color: rgb(0, 0, 0);&quot;&gt;TraceID: X-Trace-ID&lt;/span&gt;" style="text;html=1;align=center;verticalAlign=middle;whiteSpace=wrap;rounded=0;fontStyle=1" vertex="1" parent="1">
                    <mxGeometry x="80" y="20" width="130" height="30" as="geometry"/>
                </mxCell>
            </root>
        </mxGraphModel>
    </diagram>
</mxfile>